{"title":"Daddy's Little Princess(Anal)","uid":7352002,"size":365654016,"categoryP":"porn","categoryS":"movies","magnet":"?xt=urn:btih:a9b921cd5d5fe55e14a39281f065c3aa4aa2449c&amp;dn=Daddy%27s+Little+Princess%28Anal%29&amp;tr=udp%3A%2F%2Ftracker.openbittorrent.com%3A80&amp;tr=udp%3A%2F%2Fopen.demonii.com%3A1337&amp;tr=udp%3A%2F%2Ftracker.coppersurfer.tk%3A6969&amp;tr=udp%3A%2F%2Fexodus.desync.com%3A6969","seeders":0,"leechers":1,"uploader":"soulless123","files":1,"time":1339634615,"description":"Screens\n &lt;a href=&quot;\nhttp://bayimg.com/paPbMAadC&quot; rel=&quot;nofollow&quot; target=&quot;_NEW&quot;&gt;\nhttp://bayimg.com/paPbMAadC&lt;/a&gt;\n\n\nSeeding Time 24/7\n\nDon't Forget To Say Thanks If You Like My Post\n\n\n\n-=Media Info=-\n\nFormat : AVI\nFormat/Info : Audio Video Interleave\nFile size : 349 MiB\nDuration : 32mn 56s\nOverall bit rate mode : Variable\nOverall bit rate : 1 480 Kbps\nWriting application : VirtualDubMod 1.5.4.1 (build 2178/release)\nWriting library : VirtualDubMod build 2178/release\n\nVideo\nID : 0\nFormat : MPEG-4 Visual\nFormat profile : Advanced Simple@L5\nFormat settings, BVOP : 1\nFormat settings, QPel : No\nFormat settings, GMC : No warppoints\nFormat settings, Matrix : Default (H.263)\nMuxing mode : Packed bitstream\nCodec ID : XVID\nCodec ID/Hint : XviD\nDuration : 32mn 56s\nBit rate : 1 362 Kbps\nWidth : 720 pixels\nHeight : 544 pixels\nDisplay aspect ratio : 4:3\nFrame rate : 29.970 fps\nColor space : YUV\nChroma subsampling : 40\nBit depth : 8 bits\nScan type : Progressive\nCompression mode : Lossy\nBits/(Pixel*Frame) : 0.116\nStream size : 321 MiB (92%)\nWriting library : XviD 1.2.0.dev47 (UTC 2006-11-01)\n\nAudio\nID : 1\nFormat : MPEG Audio\nFormat version : Version 1\nFormat profile : Layer 3\nMode : Joint stereo\nMode extension : MS Stereo\nCodec ID : 55\nCodec ID/Hint : MP3\nDuration : 32mn 56s\nBit rate mode : Variable\nBit rate : 104 Kbps\nChannel(s) : 2 channels\nSampling rate : 48.0 KHz\nCompression mode : Lossy\nStream size : 24.5 MiB (7%)\nAlignment : Aligned on interleaves\nInterleave, duration : 24 ms (0.72 video frame)\nInterleave, preload duration : 546 ms\nLanguage : English\n","torrent":{"xt":"urn:btih:a9b921cd5d5fe55e14a39281f065c3aa4aa2449c","amp;dn":"Daddy%27s+Little+Princess%28Anal%29","amp;tr":["udp%3A%2F%2Ftracker.openbittorrent.com%3A80","udp%3A%2F%2Fopen.demonii.com%3A1337","udp%3A%2F%2Ftracker.coppersurfer.tk%3A6969","udp%3A%2F%2Fexodus.desync.com%3A6969"],"infoHash":"a9b921cd5d5fe55e14a39281f065c3aa4aa2449c","infoHashBuffer":{"type":"Buffer","data":[169,185,33,205,93,95,229,94,20,163,146,129,240,101,195,170,74,162,68,156]},"announce":[],"urlList":[]}}